<svg xmlns="http://www.w3.org/2000/svg" viewBox="-512 -512 1024 1024">
  <path d="M128,136H32c-4.4185,0-8-3.5815-8-8s3.5815-8,8-8h88v-56c0-4.4185,3.5815-8,8-8s8,3.5815,8,8v64c0,4.4185-3.5815,8-8,8ZM0,136h-128c-4.4185,0-8-3.5815-8-8s3.5815-8,8-8H-8v-56c0-4.4185,3.5815-8,8-8h56V-32c0-4.4185,3.5815-8,8-8s8,3.5815,8,8v96c0,4.4185-3.5815,8-8,8H8v56c0,4.4185-3.5815,8-8,8ZM96,104H32c-4.4185,0-8-3.5815-8-8s3.5815-8,8-8h56V-56h-56c-4.4185,0-8-3.5815-8-8s3.5815-8,8-8h64c4.4185,0,8,3.5815,8,8V96c0,4.4185-3.5815,8-8,8ZM128,40c-4.4185,0-8-3.5815-8-8v-120H32c-4.4185,0-8-3.5815-8-8s3.5815-8,8-8h96c4.4185,0,8,3.5815,8,8V32c0,4.4185-3.5815,8-8,8Z" fill="#f0f" stroke-width="0"/>
</svg>