<svg xmlns="http://www.w3.org/2000/svg" viewBox="-512 -512 1024 1024">
  <path d="M144,280c-74.9907,0-136-61.0093-136-136V16c0-4.4185,3.5815-8,8-8s8,3.5815,8,8v128c0,66.168,53.832,120,120,120s120-53.832,120-120S210.168,24,144,24H48c-4.4185,0-8-3.5815-8-8s3.5815-8,8-8h96c74.9907,0,136,61.0093,136,136s-61.0093,136-136,136ZM248,144c0-57.3457-46.6543-104-104-104H48c-4.4185,0-8,3.5815-8,8s3.5815,8,8,8h96c48.5234,0,88,39.4766,88,88s-39.4766,88-88,88-88-39.4766-88-88v-64c0-4.4185-3.5815-8-8-8s-8,3.5815-8,8v64c0,57.3457,46.6543,104,104,104s104-46.6543,104-104ZM216,144c0-39.7012-32.2988-72-72-72h-32c-4.4185,0-8,3.5815-8,8s3.5815,8,8,8h32c30.8784,0,56,25.1216,56,56s-25.1216,56-56,56-56-25.1216-56-56v-64c0-4.4185-3.5815-8-8-8s-8,3.5815-8,8v64c0,39.7012,32.2988,72,72,72s72-32.2988,72-72Z" fill="#f0f" stroke-width="0"/>
</svg>