<svg xmlns="http://www.w3.org/2000/svg" viewBox="-512 -512 1024 1024">
  <path d="M23.9946,188.6382c-55.3916-14.8423-88.3813-71.9819-73.5396-127.3735,3.4258-12.7827,16.6128-20.3926,29.394-16.9707C-7.3677,47.7192.2451,60.9053-3.1802,73.688c-7.9917,29.8262,9.772,60.5938,39.5981,68.5854,29.8257,7.9956,60.5942-9.7705,68.5854-39.5981,8.0113-29.8971-9.701-60.5744-39.5981-68.5854-4.2578-1.1401-8.6553,1.3955-9.7974,5.6572-1.1447,4.2706,1.3853,8.6536,5.6562,9.7974,21.3047,5.709,33.9932,27.6855,28.2847,48.9902-5.709,21.3042-27.6841,33.9927-48.9902,28.2842-21.3042-5.709-33.9927-27.6855-28.2842-48.9902,2.7656-10.3203,1.3462-21.0996-3.9956-30.3525-5.3423-9.2529-13.9678-15.8716-24.2886-18.6367l-15.4546-4.1411c-4.2681-1.1436-6.8008-5.5303-5.6572-9.7979,1.144-4.2681,5.5337-6.7979,9.7979-5.6572l15.4551,4.1411c14.4487,3.8716,26.5249,13.1377,34.0039,26.0918s9.4658,28.0454,5.5942,42.4941c-3.4253,12.7822,4.1875,25.9683,16.9707,29.3936,12.8118,3.4344,25.9607-4.1585,29.3936-16.9707,3.4334-12.8132-4.1574-25.9604-16.9707-29.3936-12.8128-3.4333-20.4033-16.5812-16.9702-29.394,3.4335-12.8136,16.5794-20.4019,29.3936-16.9707,38.4397,10.3005,61.2119,49.7422,50.9121,88.1821-10.3009,38.4401-49.7414,61.21-88.1821,50.9116-38.3477-10.2759-61.1865-49.8335-50.9116-88.1816,1.1445-4.2708-1.3858-8.6541-5.6567-9.7979-4.2568-1.1401-8.6562,1.3955-9.7979,5.6567-12.5586,46.8696,15.3555,95.2188,62.2256,107.7773,46.8662,12.5591,95.2178-15.3555,107.7773-62.2256,12.5586-46.8696-15.3555-95.2188-62.2256-107.7773L27.3232-9.2432c-4.2676-1.1436-6.8003-5.5303-5.6567-9.7983,1.144-4.2671,5.5303-6.7964,9.7983-5.6567l46.3638,12.4233c55.3916,14.8423,88.3813,71.9819,73.5396,127.3735-14.8414,55.3872-71.9859,88.3792-127.3735,73.5396Z" fill="#f0f" stroke-width="0"/>
</svg>