<svg xmlns="http://www.w3.org/2000/svg" viewBox="-512 -512 1024 1024">
  <path d="M16.9707,73.5391L-5.6567,50.9116c-3.1245-3.124-3.1245-8.1895,0-11.3135,3.124-3.124,8.1895-3.124,11.3135,0l22.6274,22.6274c34.3105,34.3105,90.1396,34.3105,124.4512,0,34.311-34.3115,34.311-90.1396,0-124.4512-34.312-34.311-90.1401-34.3101-124.4512,0-3.124,3.124-8.1895,3.124-11.3135,0-3.1245-3.124-3.1245-8.1895,0-11.3135,40.5488-40.5493,106.5283-40.5503,147.0781,0,40.5498,40.5493,40.5498,106.5288,0,147.0781-40.5427,40.5427-106.5228,40.5563-147.0781,0ZM141.4214,50.9116c28.0723-28.0728,28.0723-73.7505,0-101.8232-28.0723-28.0732-73.751-28.0732-101.8232,0L-5.6567-5.6567c-3.1245,3.124-3.1245,8.1895,0,11.3135,3.124,3.124,8.1895,3.124,11.3135,0l45.2549-45.2549c21.8335-21.835,57.3608-21.835,79.1963,0,21.834,21.8345,21.834,57.3618,0,79.1963-21.835,21.834-57.3613,21.834-79.1963,0-3.124-3.124-8.1895-3.124-11.3135,0-3.1245,3.124-3.1245,8.1895,0,11.3135,28.0719,28.0729,73.7513,28.0729,101.8232,0ZM118.7939,28.2842c15.5962-15.5957,15.5962-40.9727,0-56.5684-15.5967-15.5957-40.9727-15.5957-56.5684,0L16.9707,16.9707c-3.1245,3.124-3.1245,8.1895,0,11.3135,3.124,3.124,8.1895,3.124,11.3135,0l45.2549-45.2549c9.3564-9.3574,24.582-9.3584,33.9414,0,9.3574,9.3579,9.3574,24.5835,0,33.9414-9.3584,9.3574-24.584,9.3574-33.9414,0-3.124-3.124-8.1895-3.124-11.3135,0-3.1245,3.124-3.1245,8.1895,0,11.3135,15.5957,15.5957,40.9727,15.5957,56.5684,0Z" fill="#f0f" stroke-width="0"/>
</svg>