<svg xmlns="http://www.w3.org/2000/svg" viewBox="-512 -512 1024 1024">
  <path d="M95.6528,179.5122l7.0796-44.6978c.3315-2.0957,1.4824-3.9736,3.1992-5.2207l45.3047-32.916-27.3164-37.5977c-2.5972-3.5742-1.8047-8.5771,1.77-11.1743,3.5742-2.5977,8.5767-1.8047,11.1743,1.77l32.0186,44.0698c2.5972,3.5742,1.8047,8.5771-1.77,11.1743l-49.0957,35.6704-3.54,22.3486,113.7295-82.6294-69.0127-35.1636c-6.337-3.2281-5.604-12.5383,1.1597-14.7363l42.4995-13.8091-66.082-33.6704c-1.8906-.9634-3.3208-2.6377-3.9766-4.6558l-12.5913-38.7524c-1.3652-4.2021.9341-8.7153,5.1362-10.0806,4.2031-1.3662,8.7148.9341,10.0806,5.1362l11.5674,35.6011L227.3252,11.1128c6.3374,3.2283,5.6044,12.5382-1.1597,14.7363l-42.4995,13.8091,63.436,32.3223c5.3166,2.7091,5.8977,10.0926,1.0703,13.6001l-139.916,101.6553c-5.7544,4.1801-13.7165-.6989-12.6035-7.7236Z" fill="#f0f" stroke-width="0" />
</svg>