<svg xmlns="http://www.w3.org/2000/svg" viewBox="-512 -512 1024 1024">
  <path d="M190.4419,124.6279L-33.0464,89.231c-4.3638-.6909-7.3413-4.7891-6.6499-9.1528s4.7944-7.3413,9.1528-6.6499l204.4121,32.3755-26.2656-36.1519c-4.1802-5.7535.6996-13.7168,7.7236-12.6035l76.501,12.1162-4.8301-14.8662L149.3052,14.7119c-3.9338-2.0035-5.5019-6.8233-3.4961-10.7598l41.0908-80.6445c2.0059-3.938,6.8237-5.5015,10.7598-3.4961,3.937,2.0059,5.502,6.8232,3.4961,10.7598L163.6968,4.0879l73.5171,37.459c1.8906.9629,3.3208,2.6377,3.9766,4.6558l9.8882,30.4336c1.8441,5.6746-2.9671,11.3104-8.8599,10.3735l-70.3193-11.1372,26.2661,36.1519c4.1802,5.7535-.6996,13.7169-7.7236,12.6035Z" fill="#f0f" stroke-width="0" />
</svg>