<svg xmlns="http://www.w3.org/2000/svg" viewBox="-512 -512 1024 1024">
  <path d="M-6.9282,196l-36.9502-64c-2.209-3.8262-.8979-8.7192,2.9282-10.9282,3.8267-2.2075,8.7188-.8975,10.9282,2.9282L0,176l48.4976-84c1.4292-2.4751,4.0703-4,6.9282-4h60.0444l-9.2378-16H0c-4.4185,0-8-3.5815-8-8s3.5815-8,8-8h110.8511c2.8579,0,5.499,1.5249,6.9282,4l18.4756,32c3.0762,5.3274-.7764,12-6.9282,12H60.0444L6.9282,196c-3.0757,5.3266-10.7807,5.3266-13.8564,0ZM-4,134.9282c-3.8262-2.209-5.1372-7.1021-2.9282-10.9282l11.5479-20.0015-170.8965.0015c-4.418,0-8-3.5815-8-8s3.5815-8,8-8l184.7529-.0015c6.1513,0,10.0042,6.673,6.9282,12l-18.4761,32.0015c-2.2096,3.8265-7.1018,5.138-10.9282,2.9282ZM92.376,40H-13.8564c-4.4185,0-8-3.5815-8-8s3.5815-8,8-8h92.376L64.4976-.2871c-2.209-3.8262-.8979-8.7192,2.9282-10.9282,3.8271-2.208,8.7192-.8979,10.9282,2.9282l20.9502,36.2871c3.0762,5.3274-.7764,12-6.9282,12Z" fill="#f0f" stroke-width="0"/>
</svg>