<svg xmlns="http://www.w3.org/2000/svg" viewBox="-512 -512 1024 1024">
  <g fill="none">
    <path d="M181,0 90.5,-90.5 45.2,-45.3 0,-90.5 -67.5,-23"/>
    <path d="M-45.3,90.5 0,135.8 113.1,22.6 67.9,-22.6"/>
    <path d="M67.9,113.1 158.4,22.6 90.5,-45.3"/>
    <path d="M-67.9,113.1 0,181 45.2,135.8"/>
    <path d="M-67.9,-113.1 -158.4,-22.6 -90.5,45.2"/>
    <path d="M67.9,-113.1 0,-181 -45.3,-135.8"/>
    <path d="M-67.9,22.6 -113.1,-22.6 0,-135.8 45.2,-90.5"/>
    <path d="M65.2,25.3 0,90.5 -45.3,45.2 -90.5,90.5 -181,0"/>
  </g>
</svg>