<svg xmlns="http://www.w3.org/2000/svg" viewBox="-512 -512 1024 1024">
  <g fill="none">
    <path d="M16,16v128c0,70.7,57.3,128,128,128s128-57.3,128-128S214.7,16,144,16H48"/>
    <path d="M48,48h96c53,0,96,43,96,96s-43,96-96,96s-96-43-96-96V80"/>
    <path d="M80,80v64c0,35.3,28.7,64,64,64s64-28.7,64-64s-28.7-64-64-64h-32"/>
    <path d="M16-16h128c70.7,0,128-57.3,128-128s-57.3-128-128-128S16-214.7,16-144v96"/>
    <path d="M48-48v-96c0-53,43-96,96-96s96,43,96,96s-43,96-96,96H80"/>
    <path d="M80-80h64c35.3,0,64-28.6,64-64s-28.7-64-64-64s-64,28.6-64,64v32"/>
    <path d="M-16-16v-128c0-70.7-57.3-128-128-128s-128,57.3-128,128s57.3,128,128,128h96"/>
    <path d="M-48-48h-96c-53,0-96-43-96-96s43-96,96-96s96,43,96,96v64"/>
    <path d="M-80-80v-64c0-35.4-28.6-64-64-64s-64,28.6-64,64s28.6,64,64,64h32"/>
    <path d="M-16,16h-128c-70.7,0-128,57.3-128,128s57.3,128,128,128s128-57.3,128-128V48"/>
    <path d="M-48,48v96c0,53-43,96-96,96s-96-43-96-96s43-96,96-96h64"/>
    <path d="M-80,80h-64c-35.4,0-64,28.7-64,64s28.6,64,64,64s64-28.7,64-64v-32"/>
  </g>
</svg>