<svg xmlns="http://www.w3.org/2000/svg" viewBox="-512 -512 1024 1024">
  <g fill="none">
    <path d="M-22.6-22.6l-22.6-22.6c-25-25-65.5-25-90.5,0s-25,65.5,0,90.5s65.5,25,90.5,0l90.5-90.5c25-25,65.5-25,90.5,0
      s25,65.5,0,90.5s-65.5,25-90.5,0L22.6,22.6"/>
    <path d="M67.9,22.6c12.5,12.5,32.8,12.5,45.2,0c12.5-12.5,12.5-32.8,0-45.2c-12.5-12.5-32.8-12.5-45.2,0L45.3,0"/>
    <path d="M22.6-67.9c37.5-37.5,98.3-37.5,135.8,0s37.5,98.3,0,135.8s-98.3,37.5-135.8,0L0,45.3"/>
    <path d="M-67.9-22.6c-12.5-12.5-32.8-12.5-45.2,0c-12.5,12.5-12.5,32.8,0,45.2c12.5,12.5,32.8,12.5,45.2,0L-45.2,0"/>
    <path d="M-22.6,67.9c-37.5,37.5-98.3,37.5-135.8,0s-37.5-98.3,0-135.8s98.3-37.5,135.8,0L0-45.2"/>
  </g>
</svg>