<svg xmlns="http://www.w3.org/2000/svg" viewBox="-512 -512 1024 1024">
  <g fill="none">
    <path d="M24.3,-142.3 -33,-184 -33,-184 -98.9,-136.1"/>
    <path d="M119.1,-73.4 50.2,-123.5 95.8,-186.4 210.4,-103.1 210.4,-103.1 179.8,-8.9 216.8,3.1 243.5,-79.1"/>
    <path d="M142.9,-20.9 164.8,-88.3 164.8,-88.3 98.9,-136.1"/>
    <path d="M150.5,207.1 64,207.1 64,168.3 163.1,168.3 206.9,33.6 133,9.6 106.7,90.6"/>
    <path d="M64,129.4 134.9,129.4 160,52"/>
    <path d="M-150.5,207.1 -177.2,124.9 -140.3,112.9 -109.6,207.1 32,207.1 32,129.4 -53.3,129.4"/>
    <path d="M-103.3,100.9 -81.4,168.3 0,168.3"/>
    <path d="M-139.5,-10.6 -113.2,70.4 -187.1,94.4 -230.8,-40.3 -230.8,-40.3 -150.7,-98.5 -173.5,-129.9 -243.5,-79.1"/>
    <path d="M-127.9,-67.1 -185.2,-25.4 -185.2,-25.4 -160,52"/>
    <path d="M-33,-136 -102,-85.9 -147.6,-148.8 -33,-232 47.1,-173.8 70,-205.2 0,-256"/>
  </g>
</svg>