<svg xmlns="http://www.w3.org/2000/svg" viewBox="-512 -512 1024 1024">
  <g fill="none">
    <path d="M-64,222.7 -64,54.4 -224,106.4"/>
    <path d="M-192,129.7 -96,98.5"/>
    <path d="M-32,77.7 -32,245.9"/>
    <path d="M-160,152.9 -96,132.1 -96,199.4"/>
    <path d="M-231.6,7.9 -71.6,-44 -170.4,-180.1"/>
    <path d="M-182.7,-142.5 -123.3,-60.9"/>
    <path d="M-243.8,45.6 -83.8,-6.4"/>
    <path d="M-219.3,-29.7 -155.3,-50.5 -194.9,-104.9"/>
    <path d="M-79.1,-217.8 19.8,-81.7 118.7,-217.8"/>
    <path d="M79.1,-217.8 19.8,-136.1"/>
    <path d="M-19.8,-81.7 -118.7,-217.8"/>
    <path d="M-39.6,-217.8 0,-163.3 39.5,-217.8"/>
    <path d="M182.7,-142.5 83.8,-6.4 243.8,45.6"/>
    <path d="M231.5,7.9 135.5,-23.2"/>
    <path d="M71.5,-44 170.4,-180.1"/>
    <path d="M219.3,-29.7 155.3,-50.5 194.9,-104.9"/>
    <path d="M32,245.9 32,77.7 192,129.7"/>
    <path d="M64,222.7 64,121.7"/>
    <path d="M64,54.4 224,106.4"/>
    <path d="M96,199.4 96,132.1 160,152.9"/>
  </g>
</svg>