<svg xmlns="http://www.w3.org/2000/svg" viewBox="-512 -512 1024 1024">
  <g fill="none">
    <path d="M34.6,-4 -18.5,-96 -39.4,-59.7"/>
    <path d="M-13.9,32 92.4,32 71.4,-4.3"/>
    <path d="M-20.8,-28 -73.9,64 -32,64"/>
    <path d="M-92.4,-96 -166.3,-96 -110.9,0 -110.9,0 -147.8,64 -110.9,64 -55.4,-32"/>
    <path d="M129.3,-32 166.3,-96 55.4,-96 18.5,-160 0,-128 55.4,-32"/>
    <path d="M-37,128 0,192 55.4,96 55.4,96 129.3,96 110.8,64 0,64"/>
    <path d="M0,128 18.5,96 -166.3,96"/>
    <path d="M-110.9,-64 -92.4,-32 0,-192"/>
    <path d="M110.8,-64 73.9,-64 166.3,96"/>
  </g>
</svg>